<svg id="visual" viewBox="0 0 900 450" width="900" height="450" xmlns="http://www.w3.org/2000/svg" xmlns:xlink="http://www.w3.org/1999/xlink" version="1.1"><path d="M818 450L821 440.7C824 431.3 830 412.7 830 394C830 375.3 824 356.7 825.5 337.8C827 319 836 300 839 281.2C842 262.3 839 243.7 839 225C839 206.3 842 187.7 842 169C842 150.3 839 131.7 837.5 112.8C836 94 836 75 834.5 56.2C833 37.3 830 18.7 828.5 9.3L827 0L900 0L900 9.3C900 18.7 900 37.3 900 56.2C900 75 900 94 900 112.8C900 131.7 900 150.3 900 169C900 187.7 900 206.3 900 225C900 243.7 900 262.3 900 281.2C900 300 900 319 900 337.8C900 356.7 900 375.3 900 394C900 412.7 900 431.3 900 440.7L900 450Z" fill="#6198ff"></path><path d="M728 450L732.5 440.7C737 431.3 746 412.7 743 394C740 375.3 725 356.7 725 337.8C725 319 740 300 744.5 281.2C749 262.3 743 243.7 743 225C743 206.3 749 187.7 749 169C749 150.3 743 131.7 741.5 112.8C740 94 743 75 746 56.2C749 37.3 752 18.7 753.5 9.3L755 0L828 0L829.5 9.3C831 18.7 834 37.3 835.5 56.2C837 75 837 94 838.5 112.8C840 131.7 843 150.3 843 169C843 187.7 840 206.3 840 225C840 243.7 843 262.3 840 281.2C837 300 828 319 826.5 337.8C825 356.7 831 375.3 831 394C831 412.7 825 431.3 822 440.7L819 450Z" fill="#1c6fff"></path><path d="M593 450L578 440.7C563 431.3 533 412.7 507.5 394C482 375.3 461 356.7 473 337.8C485 319 530 300 537.5 281.2C545 262.3 515 243.7 509 225C503 206.3 521 187.7 530 169C539 150.3 539 131.7 528.5 112.8C518 94 497 75 497 56.2C497 37.3 518 18.7 528.5 9.3L539 0L756 0L754.5 9.3C753 18.7 750 37.3 747 56.2C744 75 741 94 742.5 112.8C744 131.7 750 150.3 750 169C750 187.7 744 206.3 744 225C744 243.7 750 262.3 745.5 281.2C741 300 726 319 726 337.8C726 356.7 741 375.3 744 394C747 412.7 738 431.3 733.5 440.7L729 450Z" fill="#0055d1"></path><path d="M530 450L513.5 440.7C497 431.3 464 412.7 441.5 394C419 375.3 407 356.7 423.5 337.8C440 319 485 300 489.5 281.2C494 262.3 458 243.7 447.5 225C437 206.3 452 187.7 462.5 169C473 150.3 479 131.7 471.5 112.8C464 94 443 75 438.5 56.2C434 37.3 446 18.7 452 9.3L458 0L540 0L529.5 9.3C519 18.7 498 37.3 498 56.2C498 75 519 94 529.5 112.8C540 131.7 540 150.3 531 169C522 187.7 504 206.3 510 225C516 243.7 546 262.3 538.5 281.2C531 300 486 319 474 337.8C462 356.7 483 375.3 508.5 394C534 412.7 564 431.3 579 440.7L594 450Z" fill="#004cbb"></path><path d="M395 450L381.5 440.7C368 431.3 341 412.7 327.5 394C314 375.3 314 356.7 326 337.8C338 319 362 300 363.5 281.2C365 262.3 344 243.7 344 225C344 206.3 365 187.7 371 169C377 150.3 368 131.7 360.5 112.8C353 94 347 75 351.5 56.2C356 37.3 371 18.7 378.5 9.3L386 0L459 0L453 9.3C447 18.7 435 37.3 439.5 56.2C444 75 465 94 472.5 112.8C480 131.7 474 150.3 463.5 169C453 187.7 438 206.3 448.5 225C459 243.7 495 262.3 490.5 281.2C486 300 441 319 424.5 337.8C408 356.7 420 375.3 442.5 394C465 412.7 498 431.3 514.5 440.7L531 450Z" fill="#0055d1"></path><path d="M260 450L245 440.7C230 431.3 200 412.7 186.5 394C173 375.3 176 356.7 185 337.8C194 319 209 300 206 281.2C203 262.3 182 243.7 185 225C188 206.3 215 187.7 227 169C239 150.3 236 131.7 225.5 112.8C215 94 197 75 201.5 56.2C206 37.3 233 18.7 246.5 9.3L260 0L387 0L379.5 9.3C372 18.7 357 37.3 352.5 56.2C348 75 354 94 361.5 112.8C369 131.7 378 150.3 372 169C366 187.7 345 206.3 345 225C345 243.7 366 262.3 364.5 281.2C363 300 339 319 327 337.8C315 356.7 315 375.3 328.5 394C342 412.7 369 431.3 382.5 440.7L396 450Z" fill="#1c6fff"></path><path d="M0 450L0 440.7C0 431.3 0 412.7 0 394C0 375.3 0 356.7 0 337.8C0 319 0 300 0 281.2C0 262.3 0 243.7 0 225C0 206.3 0 187.7 0 169C0 150.3 0 131.7 0 112.8C0 94 0 75 0 56.2C0 37.3 0 18.7 0 9.3L0 0L261 0L247.5 9.3C234 18.7 207 37.3 202.5 56.2C198 75 216 94 226.5 112.8C237 131.7 240 150.3 228 169C216 187.7 189 206.3 186 225C183 243.7 204 262.3 207 281.2C210 300 195 319 186 337.8C177 356.7 174 375.3 187.5 394C201 412.7 231 431.3 246 440.7L261 450Z" fill="#6198ff"></path></svg>